<mxfile host="app.diagrams.net" agent="Mozilla/5.0 (Windows NT 10.0; Win64; x64) AppleWebKit/537.36 (KHTML, like Gecko) Chrome/127.0.0.0 Safari/537.36" version="24.7.7">
  <diagram name="PÃ¡gina-1" id="DpjTstXBv6Qxr3aj5Yr0">
    <mxGraphModel grid="1" page="1" gridSize="10" guides="1" tooltips="1" connect="1" arrows="1" fold="1" pageScale="1" pageWidth="827" pageHeight="1169" math="0" shadow="0">
      <root>
        <mxCell id="0" />
        <mxCell id="1" parent="0" />
        <mxCell id="Da3oc8gKgbCMO3JMinew-7" style="edgeStyle=orthogonalEdgeStyle;rounded=0;orthogonalLoop=1;jettySize=auto;html=1;exitX=0.5;exitY=1;exitDx=0;exitDy=0;entryX=0.5;entryY=0;entryDx=0;entryDy=0;" edge="1" parent="1" source="Da3oc8gKgbCMO3JMinew-1" target="Da3oc8gKgbCMO3JMinew-2">
          <mxGeometry relative="1" as="geometry" />
        </mxCell>
        <mxCell id="Da3oc8gKgbCMO3JMinew-1" value="&lt;span style=&quot;color: rgb(26, 26, 26); background-color: transparent;&quot;&gt;INICIO&lt;/span&gt;" style="ellipse;whiteSpace=wrap;html=1;" vertex="1" parent="1">
          <mxGeometry x="354" y="120" width="120" height="80" as="geometry" />
        </mxCell>
        <mxCell id="Da3oc8gKgbCMO3JMinew-8" value="" style="edgeStyle=orthogonalEdgeStyle;rounded=0;orthogonalLoop=1;jettySize=auto;html=1;" edge="1" parent="1" source="Da3oc8gKgbCMO3JMinew-2" target="Da3oc8gKgbCMO3JMinew-3">
          <mxGeometry relative="1" as="geometry" />
        </mxCell>
        <mxCell id="Da3oc8gKgbCMO3JMinew-2" value="&lt;span style=&quot;color: rgb(26, 26, 26);&quot;&gt;SE RECIBE MEDIDA EN METROS&lt;/span&gt;" style="shape=parallelogram;perimeter=parallelogramPerimeter;whiteSpace=wrap;html=1;fixedSize=1;" vertex="1" parent="1">
          <mxGeometry x="270" y="260" width="184" height="60" as="geometry" />
        </mxCell>
        <mxCell id="Da3oc8gKgbCMO3JMinew-10" value="" style="edgeStyle=orthogonalEdgeStyle;rounded=0;orthogonalLoop=1;jettySize=auto;html=1;" edge="1" parent="1" source="Da3oc8gKgbCMO3JMinew-3" target="Da3oc8gKgbCMO3JMinew-5">
          <mxGeometry relative="1" as="geometry" />
        </mxCell>
        <mxCell id="Da3oc8gKgbCMO3JMinew-3" value="&lt;span style=&quot;color: rgb(26, 26, 26);&quot;&gt;MIDA EN PULGADAS = MEDIDA EN METROS / 0.0254&lt;/span&gt;" style="rounded=0;whiteSpace=wrap;html=1;" vertex="1" parent="1">
          <mxGeometry x="360" y="370" width="183" height="60" as="geometry" />
        </mxCell>
        <mxCell id="Da3oc8gKgbCMO3JMinew-9" value="" style="edgeStyle=orthogonalEdgeStyle;rounded=0;orthogonalLoop=1;jettySize=auto;html=1;" edge="1" parent="1" source="Da3oc8gKgbCMO3JMinew-5" target="Da3oc8gKgbCMO3JMinew-6">
          <mxGeometry relative="1" as="geometry" />
        </mxCell>
        <mxCell id="Da3oc8gKgbCMO3JMinew-5" value="&lt;span style=&quot;color: rgb(26, 26, 26);&quot;&gt;SE RECIBE MEDIDA EN&amp;nbsp;&lt;/span&gt;&lt;span style=&quot;color: rgb(26, 26, 26);&quot;&gt;PULGADAS&amp;nbsp;&lt;/span&gt;" style="shape=parallelogram;perimeter=parallelogramPerimeter;whiteSpace=wrap;html=1;fixedSize=1;" vertex="1" parent="1">
          <mxGeometry x="270" y="480" width="184" height="60" as="geometry" />
        </mxCell>
        <mxCell id="Da3oc8gKgbCMO3JMinew-6" value="&lt;span style=&quot;color: rgb(26, 26, 26); background-color: transparent;&quot;&gt;FIN&lt;/span&gt;" style="ellipse;whiteSpace=wrap;html=1;" vertex="1" parent="1">
          <mxGeometry x="354" y="600" width="120" height="80" as="geometry" />
        </mxCell>
        <mxCell id="Da3oc8gKgbCMO3JMinew-15" style="edgeStyle=orthogonalEdgeStyle;rounded=0;orthogonalLoop=1;jettySize=auto;html=1;entryX=0;entryY=0.5;entryDx=0;entryDy=0;endArrow=none;endFill=0;curved=1;" edge="1" parent="1" source="Da3oc8gKgbCMO3JMinew-14" target="Da3oc8gKgbCMO3JMinew-1">
          <mxGeometry relative="1" as="geometry" />
        </mxCell>
        <mxCell id="Da3oc8gKgbCMO3JMinew-14" value="&lt;span style=&quot;color: rgb(26, 26, 26);&quot;&gt;MARCA EL COMIENSO DEL PROCESO&lt;/span&gt;" style="text;html=1;align=center;verticalAlign=middle;whiteSpace=wrap;rounded=0;" vertex="1" parent="1">
          <mxGeometry x="160" y="160" width="110" height="80" as="geometry" />
        </mxCell>
        <mxCell id="Da3oc8gKgbCMO3JMinew-17" style="edgeStyle=orthogonalEdgeStyle;rounded=0;orthogonalLoop=1;jettySize=auto;html=1;entryX=0;entryY=0.5;entryDx=0;entryDy=0;curved=1;endArrow=none;endFill=0;" edge="1" parent="1" source="Da3oc8gKgbCMO3JMinew-16" target="Da3oc8gKgbCMO3JMinew-6">
          <mxGeometry relative="1" as="geometry" />
        </mxCell>
        <mxCell id="Da3oc8gKgbCMO3JMinew-16" value="&lt;span style=&quot;color: rgb(26, 26, 26); background-color: transparent;&quot;&gt;MARCA EL FINAL DEL PROCESO&lt;/span&gt;" style="text;html=1;align=center;verticalAlign=middle;whiteSpace=wrap;rounded=0;" vertex="1" parent="1">
          <mxGeometry x="160" y="560" width="110" height="80" as="geometry" />
        </mxCell>
      </root>
    </mxGraphModel>
  </diagram>
</mxfile>
